<?xml version="1.0" encoding="utf-8"?>
<!-- Generator: Adobe Illustrator 22.1.0, SVG Export Plug-In . SVG Version: 6.00 Build 0)  -->
<svg version="1.1" id="Capa_1" xmlns="http://www.w3.org/2000/svg" xmlns:xlink="http://www.w3.org/1999/xlink" x="0px" y="0px"
	 viewBox="0 0 296.7 103.9" style="enable-background:new 0 0 296.7 103.9;" xml:space="preserve">
<style type="text/css">
	.st0{fill:#FFFFFF;}
</style>
<g>
	<path class="st0" d="M159,48.3c2.8-8.2,5.3-14.2,7.5-18.2c-0.5-2-1.7-3.5-3.6-4.6c-2-1.1-3.9-1.6-5.7-1.6c-0.9,1.8-2.1,4.4-3.5,7.8
		c-2.3-5.2-5.7-7.8-10.2-7.8c-6.8,0.5-12.2,4.4-16.4,11.6c-4.2,7.2-6.2,14.5-6.2,21.8v0.9c0.1,7.6,3.7,11.5,10.6,11.5
		c4,0,7.7-1.7,11.2-5.2c-2.3,8.1-3.5,14.4-3.5,18.7c0,0.4,0,0.8,0,1.2c0,4.8,2.5,7.1,7.4,7.1c2.7,0,5-1,7-3
		c-1.1-1.7-1.6-4.3-1.6-7.6c0-2.5,0.3-5.4,0.9-8.8C154.1,64.5,156.2,56.5,159,48.3z M149.5,41.5c-0.3,2.2-1.1,4.6-2.3,7.3
		c-1.2,2.7-2.6,5-4.3,7c-1.6,2-3.2,3-4.6,3c-2.3,0-3.4-1.7-3.4-5v-0.4c0.1-3.6,1.4-7.5,3.7-11.8c2.7-4.4,5.4-6.9,8-7.4
		c0.1,0,0.3,0,0.4,0c1.8,0,2.7,1.5,2.7,4.4C149.7,39.4,149.6,40.4,149.5,41.5z"/>
	<path class="st0" d="M202.8,37.7c1.1-2.4,1.7-4.5,1.7-6.2c0-1.2-0.2-2.4-0.6-3.5c-1-2.8-3.4-4.1-7.2-4.1c-4,0-7.9,2.1-11.5,6.2
		c-0.5-2-1.7-3.6-3.8-4.6c-2.1-1.1-4.1-1.6-6-1.6c-0.4,0.7-0.8,1.5-1.2,2.3c-2.5,4.6-5,10-7.6,16.3c-2.6,6.2-4,12.5-4.2,18.9
		c0,0.3,0,0.7,0,1c0,4.9,2.5,7.4,7.6,7.4c2.7,0,5-1,7-3c-0.3-1.7-0.5-3.5-0.5-5.3c0-2.8,0.4-5.7,1.1-8.7c1.2-5,3-9.3,5.3-12.9
		c2.4-3.6,4.9-5.5,7.7-5.5c-1.5,1.2-2.3,2.2-2.3,3.1s0,1.4,0,1.4c0,1.7,0.6,3.1,1.9,4.1c0.8,0.7,1.8,1,3,1c0.8,0,1.7-0.1,2.7-0.4
		C199.3,42,201.7,40.1,202.8,37.7z"/>
	<path class="st0" d="M240.5,30.1c-0.7-2-2-3.5-3.9-4.6c-1.8-1.1-3.7-1.6-5.6-1.6c-1.2,5.8-2.9,11.3-5.3,16.6s-4.7,9.6-7.1,13
		c-2.4,3.4-4.1,5.2-5.2,5.2c-1,0-1.5-0.7-1.5-2.2c0-0.7,0.1-1.5,0.3-2.4c0.7-3.1,1.8-6.6,3.4-10.8c1.6-4.1,3.1-8,4.7-11.5
		c0.2-0.6,0.5-1.2,0.7-1.7c-0.4-2-1.5-3.5-3.4-4.6c-1.8-1.1-3.6-1.6-5.5-1.6c-2.1,3.5-4.8,9.1-8.2,16.8c-3.4,7.7-5,14.6-5,20.6
		c0,0.3,0,0.6,0,0.9c0,5,2.5,7.5,7.6,7.5c3.6,0,6.9-1.5,9.9-4.4s5.6-6.5,7.8-10.7c-2.2,7.4-5,13.3-8.6,17.8
		c-3.5,4.4-7.5,6.7-12.1,6.7c-1.1,0-2.3-0.1-3.6-0.4c-1.5,1.6-2.2,3.4-2.2,5.3c0,0.9,0.2,1.9,0.6,3c1.1,3.1,3.7,4.6,7.8,4.6
		c9.8,0,17.2-6.5,22.2-19.5c5-13,8.7-25.7,11.3-38.1C239.9,32.6,240.2,31.3,240.5,30.1z"/>
	<path class="st0" d="M292.4,40.9c-2.3,4.6-4.8,8.7-7.5,12.4c-2.7,3.7-4.8,5.5-6.4,5.5c-1.1,0-1.6-0.8-1.6-2.3
		c0-0.7,0.1-1.7,0.4-2.8c0.8-3.4,2.1-7.2,3.8-11.7c1.7-4.4,3.4-8.4,4.9-11.9c-0.5-2-1.7-3.6-3.5-4.7c-1.8-1.1-3.7-1.6-5.6-1.6
		l-1.3,2.6c-0.9,1.8-2,4-3.3,6.8c-0.7-3.5-2-5.9-4-7.3c-1.9-1.4-4.1-2.1-6.5-2.1c-6.6,0-12,3.8-16.3,11.3c-4.2,7.5-6.4,15-6.4,22.3
		v0.9c0.1,7.6,3.7,11.5,10.6,11.5c5,0,9.7-2.8,14-8.3c0,0.3,0,0.7,0,1c0,4.9,2.5,7.4,7.6,7.4c3,0,6-1.5,9-4.4
		c3-2.9,5.7-6.3,8.1-10.1c2.4-3.8,4.4-7.1,5.9-10.1l2.2-4.4H292.4z M268,41.4c-0.4,2.2-1.2,4.7-2.4,7.3c-1.2,2.6-2.6,5-4.2,7
		c-1.6,2-3.1,3-4.6,3c-2.3,0-3.4-1.6-3.4-4.8v-0.6c0.1-3.6,1.4-7.5,3.7-11.8c2.8-4.5,5.4-6.9,7.9-7.2c0.2,0,0.4,0,0.6,0
		c1.7,0,2.6,1.5,2.6,4.6C268.1,39.5,268.1,40.4,268,41.4z"/>
	<path class="st0" d="M94.6,0H77.9c-1.8,0-3.2,1.5-3.2,3.2s1.5,3.2,3.2,3.2h16.6c1.6,0,2.8,1.3,2.8,2.8V26c0,1.8,1.5,3.2,3.2,3.2
		s3.2-1.5,3.2-3.2V9.3C103.9,4.2,99.7,0,94.6,0z"/>
	<path class="st0" d="M3.2,29.2c1.8,0,3.2-1.5,3.2-3.2V9.3c0-1.6,1.3-2.8,2.8-2.8H26c1.8,0,3.2-1.5,3.2-3.2S27.8,0,26,0H9.3
		C4.2,0,0,4.2,0,9.3V26C0,27.8,1.5,29.2,3.2,29.2z"/>
	<path class="st0" d="M26,97.4H9.3c-1.6,0-2.8-1.3-2.8-2.8V77.9c0-1.8-1.5-3.2-3.2-3.2S0,76.1,0,77.9v16.6c0,5.1,4.2,9.3,9.3,9.3H26
		c1.8,0,3.2-1.5,3.2-3.2S27.8,97.4,26,97.4z"/>
	<path class="st0" d="M100.7,74.7c-1.8,0-3.2,1.5-3.2,3.2v16.6c0,1.6-1.3,2.8-2.8,2.8H77.9c-1.8,0-3.2,1.5-3.2,3.2s1.5,3.2,3.2,3.2
		h16.6c5.1,0,9.3-4.2,9.3-9.3V77.9C103.9,76.1,102.5,74.7,100.7,74.7z"/>
	<path class="st0" d="M39.4,13h-17c-5.1,0-9.3,4.2-9.3,9.3v17c0,5.1,4.2,9.3,9.3,9.3h17c5.1,0,9.3-4.2,9.3-9.3v-17
		C48.7,17.2,44.5,13,39.4,13z M42.2,39.4c0,1.6-1.3,2.8-2.8,2.8h-17c-1.6,0-2.8-1.3-2.8-2.8v-17c0-1.6,1.3-2.8,2.8-2.8h17
		c1.6,0,2.8,1.3,2.8,2.8V39.4z"/>
	<path class="st0" d="M39.4,55.2h-17c-5.1,0-9.3,4.2-9.3,9.3v17c0,5.1,4.2,9.3,9.3,9.3h17c5.1,0,9.3-4.2,9.3-9.3v-17
		C48.7,59.4,44.5,55.2,39.4,55.2z M42.2,81.6c0,1.6-1.3,2.8-2.8,2.8h-17c-1.6,0-2.8-1.3-2.8-2.8v-17c0-1.6,1.3-2.8,2.8-2.8h17
		c1.6,0,2.8,1.3,2.8,2.8V81.6z"/>
	<path class="st0" d="M64.5,48.7h17c5.1,0,9.3-4.2,9.3-9.3v-17c0-5.1-4.2-9.3-9.3-9.3h-17c-5.1,0-9.3,4.2-9.3,9.3v17
		C55.2,44.5,59.4,48.7,64.5,48.7z M61.7,22.3c0-1.6,1.3-2.8,2.8-2.8h17c1.6,0,2.8,1.3,2.8,2.8v17c0,1.6-1.3,2.8-2.8,2.8h-17
		c-1.6,0-2.8-1.3-2.8-2.8V22.3z"/>
	<path class="st0" d="M85.6,90.9c2.9,0,5.3-2.4,5.3-5.3v-8.9c0-2.9-2.4-5.3-5.3-5.3h-7.7v-11c0-2.9-2.4-5.3-5.3-5.3H60.5
		c-2.9,0-5.3,2.4-5.3,5.3v12.2c0,2.9,2.4,5.3,5.3,5.3h11v7.7c0,2.9,2.4,5.3,5.3,5.3H85.6z M77.9,77.9h6.5v6.5h-6.5V77.9z M71.4,71.4
		h-9.7v-9.7h9.7V71.4z"/>
	<path class="st0" d="M32.5,26h-3.2c-1.8,0-3.2,1.5-3.2,3.2v3.2c0,1.8,1.5,3.2,3.2,3.2h3.2c1.8,0,3.2-1.5,3.2-3.2v-3.2
		C35.7,27.4,34.3,26,32.5,26z"/>
	<path class="st0" d="M71.4,35.7h3.2c1.8,0,3.2-1.5,3.2-3.2v-3.2c0-1.8-1.5-3.2-3.2-3.2h-3.2c-1.8,0-3.2,1.5-3.2,3.2v3.2
		C68.2,34.3,69.6,35.7,71.4,35.7z"/>
	<path class="st0" d="M32.5,68.2h-3.2c-1.8,0-3.2,1.5-3.2,3.2v3.2c0,1.8,1.5,3.2,3.2,3.2h3.2c1.8,0,3.2-1.5,3.2-3.2v-3.2
		C35.7,69.6,34.3,68.2,32.5,68.2z"/>
</g>
</svg>
